<svg width="19" height="17" viewBox="0 0 19 17" fill="none" xmlns="http://www.w3.org/2000/svg">
<path d="M8.5783 1.43714C8.89876 0.56252 10.1358 0.562521 10.4562 1.43714L11.9062 5.39455C12.0506 5.78855 12.4256 6.05051 12.8452 6.05051H17.0562C18.015 6.05051 18.4242 7.26926 17.6597 7.84789L14.4563 10.2723C14.1218 10.5255 13.9809 10.9605 14.1034 11.3617L15.295 15.2643C15.5668 16.1546 14.5815 16.9008 13.7982 16.3977L10.0576 13.9956C9.72839 13.7842 9.30612 13.7842 8.97691 13.9956L5.2363 16.3977C4.453 16.9008 3.46769 16.1546 3.73954 15.2643L4.93112 11.3617C5.05363 10.9605 4.9127 10.5255 4.5782 10.2723L1.37482 7.84788C0.610299 7.26926 1.01951 6.05051 1.97831 6.05051H6.18933C6.60895 6.05051 6.98393 5.78855 7.12829 5.39455L8.5783 1.43714Z" fill="#DA2535"/>
</svg>
